<svg aria-hidden="true" style="position: absolute; width: 0; height: 0; overflow: hidden;" version="1.1" xmlns="http://www.w3.org/2000/svg" xmlns:xlink="http://www.w3.org/1999/xlink">
<defs>
<symbol id="icon-flower" viewBox="0 0 33 32">
<path fill="#fff" style="fill: var(--color1, #fff)" d="M24.021 10.001v-5c0-0.552-0.448-1-1-1h-1v-3c0-0.552-0.448-1-1-1-1.416 0-3.585-0.108-6.132 1.416-1.583-0.471-2.702-0.416-3.873-0.416-0.553 0-1.001 0.448-1.001 1v2h-1c-0.553 0-1.001 0.448-1.001 1v5c0 4.072 3.061 7.444 7.003 7.937v13.062c0 0.552 0.448 1 1.001 1s1-0.448 1-1v-3.5h1.501c3.034 0 5.503-2.467 5.503-5.5v-1.5c0-0.552-0.448-1-1-1h-2.501c-1.329 0-2.55 0.473-3.502 1.26v-2.823c3.937-0.487 7.003-3.842 7.003-7.937zM22.021 10.001c0 1.78-0.787 3.387-2.032 4.489 0.020-0.16 0.031-0.323 0.031-0.489 0-2.532-0.947-4.847-2.505-6.611 1.321-0.901 2.887-1.389 4.506-1.389v4zM20.020 2.002v2.202c-0.185 0.038-0.369 0.081-0.551 0.128-0.649-0.726-1.389-1.345-2.197-1.845 0.874-0.319 1.801-0.485 2.748-0.485zM12.016 3.002c1.988 0 3.918 0.725 5.419 2.111-0.495 0.256-0.971 0.553-1.42 0.891-1.163-0.874-2.522-1.501-3.999-1.802v-1.201zM10.015 10.001v-4c4.413 0 8.004 3.589 8.004 8 0 1.117-0.923 2.028-2.053 1.999-3.515-0.087-5.95-2.878-5.95-5.999zM20.52 21.501h1.501v0.5c0 1.93-1.571 3.5-3.502 3.5h-1.501v-0.5c0-1.93 1.571-3.5 3.502-3.5z"></path>
</symbol>
<symbol id="icon-Facebook" viewBox="0 0 32 32">
<path fill="#fff" style="fill: var(--color1, #fff)" d="M17.943 25.333v-9h2.915l0.476-4h-3.391v-1.948c0-1.030 0.028-2.052 1.563-2.052h1.555v-2.86c0-0.043-1.336-0.14-2.687-0.14-2.822 0-4.589 1.657-4.589 4.7v2.3h-3.118v4h3.118v9h4.158z"></path>
</symbol>
<symbol id="icon-Google" viewBox="0 0 32 32">
<path fill="#fff" style="fill: var(--color1, #fff)" d="M25.167 14.137h-8.97c0 0.933 0 2.798-0.006 3.731h5.198c-0.199 0.933-0.905 2.239-1.903 2.896-0.001-0.001-0.002 0.006-0.004 0.005-1.327 0.876-3.077 1.075-4.377 0.813-2.037-0.405-3.65-1.882-4.305-3.759 0.004-0.003 0.007-0.029 0.010-0.031-0.41-1.164-0.41-2.723 0-3.656h-0.001c0.528-1.714 2.189-3.279 4.229-3.707 1.641-0.348 3.493 0.029 4.855 1.303 0.181-0.177 2.506-2.448 2.681-2.632-4.653-4.213-12.102-2.731-14.89 2.71h-0.001c0 0 0.001 0-0.005 0.010-1.379 2.673-1.322 5.822 0.010 8.366-0.004 0.003-0.007 0.005-0.010 0.007 1.206 2.341 3.402 4.137 6.048 4.821 2.81 0.737 6.387 0.233 8.783-1.934 0.001 0.001 0.002 0.002 0.003 0.003 2.030-1.828 3.294-4.943 2.655-8.947z"></path>
</symbol>
<symbol id="icon-Linkedin" viewBox="0 0 32 32">
<path fill="#fff" style="fill: var(--color1, #fff)" d="M26.667 25.333h-4.103v-7.471c0-2.049-0.869-3.193-2.427-3.193-1.695 0-2.702 1.191-2.702 3.193v7.471h-4.103v-13.877h4.103v1.561c0 0 1.287-2.351 4.188-2.351s5.043 1.842 5.043 5.655c0 3.812 0 9.011 0 9.011zM7.334 8c-1.105 0-2-0.896-2-2s0.895-2 2-2c1.104 0 2 0.896 2 2s-0.895 2-2 2zM5.333 25.333h4v-13.333h-4v13.333z"></path>
</symbol>
<symbol id="icon-menu" viewBox="0 0 32 32">
<path fill="#fff" style="fill: var(--color1, #fff)" d="M5.826 23.111h21.344v-2.37h-21.344v2.37zM5.826 17.185h21.344v-2.37h-21.344v2.37zM5.826 8.889v2.37h21.344v-2.37h-21.344z"></path>
</symbol>
<symbol id="icon-search" viewBox="0 0 32 32">
<path fill="#fff" style="fill: var(--color1, #fff)" d="M20.967 18.56h-1.011l-0.358-0.346c1.254-1.459 2.010-3.354 2.010-5.414 0-4.595-3.725-8.32-8.32-8.32s-8.32 3.725-8.32 8.32c0 4.595 3.725 8.32 8.32 8.32 2.061 0 3.955-0.755 5.414-2.010l0.346 0.358v1.011l6.4 6.387 1.907-1.907-6.387-6.4zM13.287 18.56c-3.187 0-5.76-2.573-5.76-5.76s2.573-5.76 5.76-5.76c3.187 0 5.76 2.573 5.76 5.76s-2.573 5.76-5.76 5.76z"></path>
</symbol>
</defs>
</svg>
